SplineFontDB: 3.2
FontName: ImePrezime
FullName: ImePrezime
FamilyName: ImePrezime
Weight: Regular
Copyright: Copyright (c) 2025, Slavica
UComments: "2025-3-22: Created with FontForge (http://fontforge.org)"
Version: 001.000
ItalicAngle: 0
UnderlinePosition: -100
UnderlineWidth: 50
Ascent: 800
Descent: 200
InvalidEm: 0
LayerCount: 3
Layer: 0 0 "Stra+AX4A-nji" 1
Layer: 1 0 "Prednji" 0
Layer: 2 0 "Stra+AX4A-nji 2" 1
XUID: [1021 388 973476131 15485]
StyleMap: 0x0000
FSType: 0
OS2Version: 0
OS2_WeightWidthSlopeOnly: 0
OS2_UseTypoMetrics: 1
CreationTime: 1742662235
ModificationTime: 1745260496
OS2TypoAscent: 0
OS2TypoAOffset: 1
OS2TypoDescent: 0
OS2TypoDOffset: 1
OS2TypoLinegap: 90
OS2WinAscent: 0
OS2WinAOffset: 1
OS2WinDescent: 0
OS2WinDOffset: 1
HheadAscent: 0
HheadAOffset: 1
HheadDescent: 0
HheadDOffset: 1
OS2Vendor: 'PfEd'
MarkAttachClasses: 1
DEI: 91125
Encoding: iso8859-2
UnicodeInterp: none
NameList: AGL For New Fonts
DisplaySize: -48
AntiAlias: 1
FitToEm: 0
WinInfo: 0 38 13
BeginPrivate: 0
EndPrivate
BeginChars: 256 23

StartChar: A
Encoding: 65 65 0
Width: 562
Flags: HW
LayerCount: 3
Fore
SplineSet
264 430 m 1
 298 428 325.241210938 433.620117188 322 494 c 1
 322 540 300.847138241 546.493932227 274 554 c 1
 250 552 212.666667491 545.998492577 214 506 c 1
 210.949680254 473.858411806 210 438 264 430 c 1
38 0 m 1
 68.1547505465 208.333077946 102 448 152 602 c 1
 192 768 356 770 398 594 c 1
 416 522 524 -12 514 0 c 0
 511.439495633 3.07260523987 346 0 346 0 c 1
 324 182 l 1
 320 280 240 354 202 178 c 1
 184 0 l 1
 38 0 l 1
38 0 m 1049
EndSplineSet
Validated: 33
EndChar

StartChar: a
Encoding: 97 97 1
Width: 357
Flags: HW
LayerCount: 3
Fore
SplineSet
57 345 m 5
 57.7333984375 260.083984375 59.0087890625 141.611328125 61 52 c 5
 298 52 l 5
 295 345 l 5
 57 345 l 5
22 20 m 5
 20 378 l 5
 291 380 l 5
 292 410 l 5
 336 410 l 5
 337 0 l 5
 299 1 l 5
 298 18 l 5
 22 20 l 5
EndSplineSet
Validated: 1
EndChar

StartChar: r
Encoding: 114 114 2
Width: 316
Flags: HW
LayerCount: 3
Fore
SplineSet
20 0 m 1
 22 400 l 1
 60 401 l 1
 60 371 l 1
 285 370 l 1
 284 339 l 1
 60 337 l 1
 60 0 l 1
 20 0 l 1
EndSplineSet
Validated: 1
EndChar

StartChar: S
Encoding: 83 83 3
Width: 454
Flags: HW
LayerCount: 3
Fore
SplineSet
375 42 m 4
 379 329 l 5
 261.916992188 330.600585938 127.572265625 335.314453125 23 337 c 5
 27 701 l 5
 419 698 l 5
 420 651 l 5
 69 656 l 5
 66 378 l 5
 420 371 l 29
 420 371 418 -2 418 0 c 4
 418 2 20 0 20 0 c 5
 21 44 l 5
 21 44 376 43 375 42 c 4
EndSplineSet
Validated: 37
EndChar

StartChar: K
Encoding: 75 75 4
Width: 339
Flags: HW
LayerCount: 3
Fore
SplineSet
20 0 m 1
 20 708 l 1
 56 711 l 1
 54 385 l 1
 54 385 l 1
 266 701 l 1
 314 701 l 1
 58 340 l 1
 320 0 l 1
 283 -1 l 1
 54 293 l 1
 54 293 55 -1 55 1 c 0
 55 3 51 0 20 0 c 1
EndSplineSet
Validated: 37
EndChar

StartChar: n
Encoding: 110 110 5
Width: 332
Flags: HW
LayerCount: 3
Fore
SplineSet
20 0 m 1
 20 401 l 1
 59 400 l 1
 60 374 l 1
 300 372 l 1
 305 0 l 1
 270 1 l 1
 266 334 l 25
 60 338 l 1
 60 0 l 25
 20 0 l 1
EndSplineSet
Validated: 1
EndChar

StartChar: e
Encoding: 101 101 6
Width: 326
Flags: HW
LayerCount: 3
Fore
SplineSet
46 237 m 1
 273 236 l 1
 273 367 l 1
 45 368 l 1
 46 237 l 1
10 0 m 9
 10 400 l 1
 302 398 l 1
 304 204 l 1
 46 205 l 1
 45 38 l 5
 302 36 l 5
 301.413085938 36 302.348394486 -0.0154511250147 302 0 c 0
 273.576349622 1.26057498955 117.353375618 -0.225139713788 10 0 c 9
EndSplineSet
Validated: 33
EndChar

StartChar: v
Encoding: 118 118 7
Width: 262
Flags: HW
LayerCount: 3
Fore
SplineSet
4 400 m 1
 37 400 l 1
 133 89 l 9
 220 400 l 1
 249 400 l 1
 133 0 l 1
 4 400 l 1
EndSplineSet
Validated: 1
EndChar

StartChar: i
Encoding: 105 105 8
Width: 81
Flags: HW
LayerCount: 3
Fore
SplineSet
22 460 m 1
 57 460 l 5
 58 431 l 5
 22 431 l 1
 22 460 l 1
22 0 m 1
 22 400 l 1
 57 400 l 29
 60 0 l 5
 22 0 l 1
EndSplineSet
EndChar

StartChar: cacute
Encoding: 230 263 9
Width: 326
Flags: HW
LayerCount: 3
Fore
SplineSet
146 456 m 1
 196 525 l 1
 222 507 l 1
 171 438 l 1
 146 456 l 1
20 0 m 13
 20 398 l 5
 300 402 l 29
 300 362 l 5
 52 361 l 5
 53 36 l 5
 296 36 l 5
 296 0 l 5
 20 0 l 13
EndSplineSet
Validated: 1
EndChar

StartChar: zcaron
Encoding: 190 382 10
Width: 313
Flags: HW
LayerCount: 3
Fore
SplineSet
97 494 m 1
 126 494 l 1
 160 450 l 1
 198 494 l 1
 227 494 l 1
 160 422 l 1
 97 494 l 1
10 375 m 5
 10 402 l 5
 294 401 l 5
 294 373 l 5
 52 29 l 5
 292 28 l 5
 292 0 l 5
 291.999999755 0.188620633304 15.9999962239 -0.0936771826888 16 0 c 4
 16.0001209305 2.99999999756 16 24 16 24 c 5
 256 374 l 5
 10 375 l 5
EndSplineSet
Validated: 33
EndChar

StartChar: Scaron
Encoding: 169 352 11
Width: 454
Flags: HW
LayerCount: 3
Fore
SplineSet
145 800 m 5
 186 800 l 5
 228 761 l 5
 261 800 l 5
 301 800 l 5
 230 721 l 5
 145 800 l 5
375 42 m 0
 379 329 l 1
 261.916992188 330.600585938 127.572265625 335.314453125 23 337 c 1
 27 701 l 1
 419 698 l 1
 420 651 l 1
 69 656 l 1
 66 378 l 1
 420 371 l 25
 420 371 418 -2 418 0 c 0
 418 2 20 0 20 0 c 1
 21 44 l 1
 21 44 376 43 375 42 c 0
EndSplineSet
Validated: 37
EndChar

StartChar: ccaron
Encoding: 232 269 12
Width: 326
Flags: HW
LayerCount: 3
Fore
SplineSet
87 501 m 5
 116 501 l 5
 168 449 l 5
 216 501 l 5
 243 501 l 5
 169 422 l 5
 87 501 l 5
20 0 m 9
 20 398 l 1
 300 402 l 25
 300 362 l 1
 52 361 l 1
 53 36 l 1
 296 36 l 1
 296 0 l 1
 20 0 l 9
EndSplineSet
Validated: 1
EndChar

StartChar: scaron
Encoding: 185 353 13
Width: 350
Flags: HW
LayerCount: 3
Fore
SplineSet
87 501 m 1
 116 501 l 1
 168 449 l 1
 216 501 l 1
 243 501 l 1
 169 422 l 1
 87 501 l 1
263 35 m 0
 269 186 l 1
 151.916992188 187.600585938 111.572265625 188.314453125 7 190 c 1
 7 402 l 1
 298 402 l 1
 298 367 l 1
 41 369 l 1
 40 221 l 1
 298 215 l 1
 298 215 294 -3 294 0 c 0
 294 0.3466796875 5 0.064453125 5 0 c 1
 5 33 l 1
 5 33 264 36 263 35 c 0
EndSplineSet
EndChar

StartChar: Zcaron
Encoding: 174 381 14
Width: 454
Flags: HW
LayerCount: 3
Fore
SplineSet
4 663 m 1
 4 690 l 1
 421 689 l 1
 421 661 l 1
 52 29 l 1
 425 28 l 1
 425 0 l 1
 425 0.1884765625 6 -0.09375 6 0 c 4
 6 3 6 24 6 24 c 5
 383 662 l 1
 4 663 l 1
145 800 m 1
 186 800 l 1
 228 761 l 1
 261 800 l 1
 301 800 l 1
 230 721 l 1
 145 800 l 1
EndSplineSet
Validated: 33
EndChar

StartChar: Cacute
Encoding: 198 262 15
Width: 424
Flags: HW
LayerCount: 3
Fore
SplineSet
177 731 m 1
 227 800 l 1
 253 782 l 1
 202 713 l 1
 177 731 l 1
12 0 m 5
 13 696 l 5
 390 700 l 5
 390 660 l 5
 56 660 l 5
 58 36 l 5
 388 36 l 5
 388 0 l 5
 12 0 l 5
EndSplineSet
Validated: 1
EndChar

StartChar: Ccaron
Encoding: 200 268 16
Width: 424
Flags: HW
LayerCount: 3
Fore
SplineSet
121 799 m 5
 162 799 l 5
 204 760 l 5
 237 799 l 5
 277 799 l 5
 206 720 l 5
 121 799 l 5
12 0 m 1
 13 696 l 1
 390 700 l 1
 390 660 l 1
 56 660 l 1
 58 36 l 1
 388 36 l 1
 388 0 l 1
 12 0 l 1
EndSplineSet
Validated: 1
EndChar

StartChar: Dcroat
Encoding: 208 272 17
Width: 408
Flags: HW
LayerCount: 3
Fore
SplineSet
72 75 m 1
 323 77 l 1
 327 686 l 1
 72 686 l 1
 72 447 l 0
 98 446 l 0
 98 384 l 0
 71 384 l 0
 72 75 l 1
32 0 m 1
 32 383 l 0
 8 383 l 0
 7 446 l 0
 32 446 l 0
 32 746 l 1
 71 746 l 25
 72 722 l 1
 368 721 l 1
 365 42 l 1
 72 39 l 25
 72 0 l 25
 32 0 l 1
EndSplineSet
Validated: 1
EndChar

StartChar: dcroat
Encoding: 240 273 18
Width: 357
Flags: HW
LayerCount: 3
Fore
SplineSet
57 345 m 5
 57.7333984375 260.083984375 59.0087890625 141.611328125 61 52 c 5
 298 52 l 5
 295 345 l 5
 57 345 l 5
22 20 m 5
 20 378 l 5
 291 380 l 5
 291 500 l 4
 269 500 l 4
 269 528 l 4
 291 528 l 4
 291 614 l 5
 335 614 l 5
 335.280130293 528 l 4
 355 528 l 4
 355.60546875 500 l 4
 336 500 l 4
 337 0 l 5
 299 1 l 5
 298 18 l 5
 22 20 l 5
EndSplineSet
Validated: 1
EndChar

StartChar: o
Encoding: 111 111 20
Width: 357
Flags: HW
LayerCount: 3
Fore
SplineSet
332 360 m 1
 333 0 l 1
 15 0 l 1
 14 358 l 1
 332 360 l 1
54 325 m 1
 55.7823894805 238.42554635 56.6221080568 120.641680626 58 32 c 1
 295 32 l 1
 292 325 l 1
 54 325 l 1
EndSplineSet
EndChar

StartChar: d
Encoding: 100 100 21
Width: 357
Flags: HW
LayerCount: 3
Fore
SplineSet
57 345 m 5
 57.7333984375 260.083984375 59.0087890625 141.611328125 61 52 c 5
 298 52 l 5
 295 345 l 5
 57 345 l 5
22 20 m 5
 20 378 l 5
 291 380 l 5
 292 607 l 5
 336 607 l 5
 337 0 l 5
 299 1 l 5
 298 18 l 5
 22 20 l 5
EndSplineSet
EndChar

StartChar: P
Encoding: 80 80 22
Width: 447
Flags: HW
LayerCount: 3
Fore
SplineSet
373 354 m 1
 372.266601562 438.916015625 370.991210938 557.388671875 369 647 c 1
 63 648 l 1
 66 355 l 1
 373 354 l 1
408 679 m 1
 410 321 l 1
 70 320 l 1
 68 0 l 1
 24 0 l 1
 24 700 l 1
 62 699 l 1
 63 682 l 1
 408 679 l 1
EndSplineSet
EndChar
